<?xml version="1.0" encoding="iso-8859-1"?>
<!-- Generator: Adobe Illustrator 19.0.0, SVG Export Plug-In . SVG Version: 6.00 Build 0)  -->
<svg version="1.1" id="Layer_1" xmlns="http://www.w3.org/2000/svg" xmlns:xlink="http://www.w3.org/1999/xlink" x="0px" y="0px"
	 viewBox="0 0 512.001 512.001" style="enable-background:new 0 0 512.001 512.001;" xml:space="preserve">
<g>
	<path style="fill:#85C250;" d="M103.276,408.724c115.566,27.45,234.695,1.65,316.624-80.277
		c28.541-28.541,50.263-61.601,65.302-97.447l-180.554-23.645L103.276,408.724z"/>
	<path style="fill:#85C250;" d="M214.85,64.835c-10.928,8.274-21.387,17.355-31.298,27.266
		c-81.929,81.929-107.727,201.058-80.277,316.624l135.221-111.576L214.85,64.835z"/>
</g>
<path style="fill:#C9D467;" d="M370.796,164.848L347.151,7.115c-47.949,8.92-93.153,28.08-132.301,57.718v232.314L370.796,164.848z"
	/>
<path style="fill:#FFCE47;" d="M500.177,11.822C448.671-0.411,396.462-2.058,347.151,7.116v157.733L500.177,11.822z"/>
<path style="fill:#C9D467;" d="M500.177,11.822L281.001,230.998H485.2C513.332,163.945,518.064,87.129,500.177,11.822z"/>
<path style="fill:#FFEBB4;" d="M11.822,511.999c-3.025,0-6.052-1.155-8.36-3.463c-4.617-4.617-4.617-12.103,0-16.721L491.817,3.463
	c4.617-4.616,12.103-4.616,16.721,0c4.617,4.617,4.617,12.103,0,16.721L20.182,508.537
	C17.874,510.845,14.848,511.999,11.822,511.999z"/>
<g>
</g>
<g>
</g>
<g>
</g>
<g>
</g>
<g>
</g>
<g>
</g>
<g>
</g>
<g>
</g>
<g>
</g>
<g>
</g>
<g>
</g>
<g>
</g>
<g>
</g>
<g>
</g>
<g>
</g>
</svg>
